<svg xmlns="http://www.w3.org/2000/svg" viewBox="0 0 64 64">
  <rect width="64" height="64" rx="16" fill="#f5ead5"/>
  <path d="M18 17.5C18 15.6 19.6 14 21.5 14H43C45.8 14 48 16.2 48 19V45C48 47.8 45.8 50 43 50H21.5C19.6 50 18 48.4 18 46.5V17.5Z" fill="#2f6f5e"/>
  <path d="M22 19.5C22 18.7 22.7 18 23.5 18H42C43.1 18 44 18.9 44 20V44C44 45.1 43.1 46 42 46H23.5C22.7 46 22 45.3 22 44.5V19.5Z" fill="#fff9ef"/>
  <path d="M26 24H40" stroke="#2f6f5e" stroke-width="3" stroke-linecap="round"/>
  <path d="M26 31H40" stroke="#2f6f5e" stroke-width="3" stroke-linecap="round"/>
  <path d="M26 38H35" stroke="#b86a3f" stroke-width="3" stroke-linecap="round"/>
  <path d="M18 18C18 16.3 19.3 15 21 15H24V49H21C19.3 49 18 47.7 18 46V18Z" fill="#204f44"/>
</svg>
